<?xml version="1.0" encoding="utf-8"?>
<!-- Generator: Adobe Illustrator 17.0.0, SVG Export Plug-In . SVG Version: 6.00 Build 0)  -->
<!DOCTYPE svg PUBLIC "-//W3C//DTD SVG 1.1//EN" "http://www.w3.org/Graphics/SVG/1.1/DTD/svg11.dtd">
<svg version="1.1" id="Layer_1" xmlns="http://www.w3.org/2000/svg" xmlns:xlink="http://www.w3.org/1999/xlink" x="0px" y="0px"
	 width="648px" height="272px" viewBox="54.862 0 648 272" enable-background="new 54.862 0 648 272" xml:space="preserve">
<g>
	<path fill="#213D77" d="M54.862,271.645v-31.212h7.273V254.5l12.151-14.067h7.539l-11.797,13.935l12.594,17.277h-7.672
		l-9.224-13.232l-3.592,3.868v9.363L54.862,271.645L54.862,271.645z"/>
	<path fill="#213D77" d="M120.806,271.908c-2.247,0-4.287-0.454-6.12-1.362c-1.834-0.908-3.408-2.102-4.722-3.583
		c-1.316-1.479-2.336-3.172-3.06-5.077c-0.725-1.905-1.087-3.868-1.087-5.891c0-2.051,0.376-4.029,1.131-5.935
		c0.753-1.905,1.803-3.583,3.149-5.034c1.345-1.45,2.941-2.608,4.79-3.472c1.847-0.865,3.865-1.297,6.054-1.297
		c2.246,0,4.286,0.454,6.12,1.362c1.833,0.909,3.407,2.11,4.722,3.605c1.315,1.495,2.329,3.195,3.038,5.1
		c0.71,1.905,1.065,3.839,1.065,5.803c0,2.052-0.377,4.029-1.131,5.934c-0.754,1.906-1.797,3.583-3.127,5.034
		c-1.331,1.45-2.92,2.615-4.767,3.495C125.011,271.469,122.994,271.908,120.806,271.908z M113.222,256.083
		c0,1.202,0.17,2.368,0.511,3.495c0.34,1.128,0.827,2.132,1.463,3.011c0.635,0.879,1.434,1.583,2.395,2.11s2.063,0.792,3.304,0.792
		c1.271,0,2.38-0.278,3.327-0.835c0.946-0.556,1.736-1.282,2.372-2.176c0.635-0.893,1.109-1.905,1.42-3.033
		c0.31-1.128,0.465-2.279,0.465-3.451c0-1.201-0.17-2.367-0.51-3.495c-0.34-1.127-0.836-2.124-1.485-2.989
		c-0.651-0.864-1.449-1.553-2.395-2.066c-0.947-0.512-2.025-0.77-3.238-0.77c-1.272,0-2.38,0.271-3.326,0.813
		c-0.947,0.543-1.737,1.253-2.372,2.132c-0.636,0.879-1.116,1.884-1.441,3.011C113.385,253.76,113.222,254.91,113.222,256.083z"/>
	<path fill="#213D77" d="M183.203,249.576c-0.119-0.117-0.444-0.337-0.976-0.66c-0.533-0.322-1.197-0.66-1.995-1.01
		c-0.799-0.352-1.671-0.66-2.617-0.923c-0.947-0.264-1.893-0.395-2.838-0.395c-1.242,0-2.195,0.22-2.861,0.66
		c-0.665,0.439-0.998,1.084-0.998,1.935c0,0.527,0.148,0.967,0.444,1.319c0.295,0.351,0.717,0.667,1.264,0.945
		c0.546,0.279,1.226,0.535,2.04,0.77c0.813,0.235,1.751,0.498,2.816,0.791c1.508,0.411,2.867,0.857,4.08,1.341
		c1.212,0.484,2.246,1.085,3.104,1.802c0.857,0.718,1.515,1.59,1.974,2.616c0.458,1.026,0.688,2.258,0.688,3.693
		c0,1.758-0.333,3.246-0.998,4.462c-0.665,1.217-1.545,2.198-2.638,2.946c-1.094,0.747-2.358,1.29-3.792,1.627
		c-1.434,0.337-2.904,0.506-4.413,0.506c-1.153,0-2.329-0.088-3.526-0.264c-1.197-0.176-2.372-0.432-3.525-0.769
		c-1.153-0.337-2.277-0.739-3.37-1.209c-1.094-0.468-2.1-1.01-3.015-1.626l3.192-6.286c0.148,0.147,0.546,0.425,1.197,0.835
		c0.65,0.41,1.448,0.821,2.395,1.231c0.946,0.411,2.011,0.777,3.192,1.099c1.182,0.323,2.38,0.484,3.593,0.484
		c2.572,0,3.858-0.777,3.858-2.33c0-0.586-0.192-1.07-0.576-1.45c-0.385-0.381-0.917-0.725-1.597-1.033
		c-0.68-0.308-1.479-0.593-2.395-0.857c-0.917-0.264-1.922-0.557-3.015-0.879c-1.449-0.439-2.706-0.916-3.77-1.428
		c-1.064-0.512-1.952-1.106-2.66-1.78c-0.71-0.674-1.235-1.45-1.574-2.33c-0.34-0.879-0.51-1.905-0.51-3.077
		c0-1.641,0.31-3.092,0.931-4.352c0.621-1.26,1.463-2.323,2.528-3.188c1.065-0.864,2.299-1.517,3.703-1.957
		c1.404-0.44,2.89-0.66,4.457-0.66c1.123,0,2.218,0.103,3.281,0.308c1.065,0.205,2.076,0.469,3.038,0.791
		c0.96,0.323,1.869,0.689,2.727,1.099c0.857,0.411,1.626,0.821,2.306,1.231L183.203,249.576z"/>
	<path fill="#213D77" d="M239.878,246.763h-9.579v24.882h-7.273v-24.882h-9.623v-6.33h26.475L239.878,246.763L239.878,246.763z"/>
	<path fill="#213D77" d="M289.946,265.315v6.33h-22.13v-31.212h21.73v6.33H275.09v6.066h12.417v5.847H275.09v6.639H289.946
		L289.946,265.315z"/>
	<path fill="#213D77" d="M318.861,271.645v-31.212h14.191c1.478,0,2.845,0.308,4.101,0.923c1.256,0.615,2.343,1.422,3.26,2.418
		c0.916,0.997,1.633,2.125,2.151,3.385c0.517,1.261,0.776,2.536,0.776,3.825c0,0.967-0.118,1.898-0.355,2.792
		c-0.237,0.894-0.576,1.736-1.02,2.527c-0.443,0.792-0.983,1.502-1.618,2.132c-0.636,0.631-1.353,1.165-2.151,1.605l7.229,11.606
		h-8.204l-6.341-10.067h-4.745v10.067H318.861z M326.133,255.292h6.652c0.857,0,1.597-0.403,2.217-1.209
		c0.621-0.805,0.931-1.839,0.931-3.099c0-1.289-0.355-2.314-1.065-3.077c-0.71-0.762-1.479-1.144-2.306-1.144h-6.43L326.133,255.292
		L326.133,255.292z"/>
	<path fill="#213D77" d="M411.102,240.433l7.45,22.157l7.317-22.157h7.673l-11.974,31.212h-6.075l-12.063-31.212H411.102z"/>
	<path fill="#213D77" d="M472.789,271.908c-2.247,0-4.287-0.454-6.12-1.362c-1.834-0.908-3.407-2.102-4.722-3.583
		c-1.316-1.479-2.336-3.172-3.06-5.077c-0.725-1.905-1.087-3.868-1.087-5.891c0-2.051,0.376-4.029,1.131-5.935
		c0.754-1.905,1.803-3.583,3.149-5.034c1.345-1.45,2.941-2.608,4.79-3.472c1.847-0.865,3.865-1.297,6.053-1.297
		c2.247,0,4.287,0.454,6.12,1.362c1.834,0.909,3.407,2.11,4.723,3.605c1.314,1.495,2.328,3.195,3.038,5.1
		c0.71,1.905,1.064,3.839,1.064,5.803c0,2.052-0.376,4.029-1.131,5.934c-0.753,1.906-1.796,3.583-3.126,5.034
		c-1.331,1.45-2.921,2.615-4.768,3.495C476.994,271.469,474.976,271.908,472.789,271.908z M465.206,256.083
		c0,1.202,0.169,2.368,0.51,3.495c0.34,1.128,0.828,2.132,1.464,3.011c0.635,0.879,1.433,1.583,2.395,2.11
		c0.96,0.527,2.062,0.792,3.304,0.792c1.271,0,2.379-0.278,3.327-0.835c0.945-0.556,1.736-1.282,2.372-2.176
		c0.635-0.893,1.108-1.905,1.419-3.033c0.31-1.128,0.466-2.279,0.466-3.451c0-1.201-0.171-2.367-0.511-3.495
		c-0.34-1.127-0.836-2.124-1.485-2.989c-0.651-0.864-1.449-1.553-2.395-2.066c-0.947-0.512-2.026-0.77-3.238-0.77
		c-1.271,0-2.38,0.271-3.326,0.813c-0.947,0.543-1.738,1.253-2.372,2.132c-0.636,0.879-1.117,1.884-1.442,3.011
		C465.368,253.76,465.206,254.91,465.206,256.083z"/>
	<path fill="#213D77" d="M529.686,271.908c-2.247,0-4.287-0.454-6.12-1.362c-1.833-0.908-3.407-2.102-4.722-3.583
		c-1.316-1.479-2.336-3.172-3.06-5.077c-0.725-1.905-1.087-3.868-1.087-5.891c0-2.051,0.376-4.029,1.131-5.935
		c0.754-1.905,1.803-3.583,3.149-5.034c1.345-1.45,2.942-2.608,4.79-3.472c1.847-0.865,3.865-1.297,6.053-1.297
		c2.247,0,4.287,0.454,6.12,1.362c1.833,0.909,3.407,2.11,4.723,3.605c1.314,1.495,2.328,3.195,3.038,5.1
		c0.71,1.905,1.064,3.839,1.064,5.803c0,2.052-0.376,4.029-1.131,5.934c-0.753,1.906-1.796,3.583-3.126,5.034
		c-1.331,1.45-2.92,2.615-4.768,3.495C533.892,271.469,531.874,271.908,529.686,271.908z M522.103,256.083
		c0,1.202,0.169,2.368,0.51,3.495c0.339,1.128,0.828,2.132,1.464,3.011c0.635,0.879,1.433,1.583,2.395,2.11
		c0.96,0.527,2.062,0.792,3.304,0.792c1.271,0,2.379-0.278,3.327-0.835c0.945-0.556,1.736-1.282,2.372-2.176
		c0.635-0.893,1.108-1.905,1.419-3.033c0.31-1.128,0.466-2.279,0.466-3.451c0-1.201-0.171-2.367-0.51-3.495
		c-0.34-1.127-0.836-2.124-1.485-2.989c-0.651-0.864-1.449-1.553-2.395-2.066c-0.947-0.512-2.026-0.77-3.238-0.77
		c-1.271,0-2.38,0.271-3.326,0.813c-0.947,0.543-1.738,1.253-2.372,2.132c-0.636,0.879-1.117,1.884-1.441,3.011
		C522.266,253.76,522.103,254.91,522.103,256.083z"/>
	<path fill="#213D77" d="M593.812,268.612c-1.123,1.115-2.313,1.935-3.57,2.462c-1.257,0.528-2.624,0.792-4.102,0.792
		c-1.981,0-3.852-0.439-5.609-1.319c-1.76-0.879-3.298-2.051-4.613-3.516c-1.316-1.465-2.358-3.172-3.127-5.122
		c-0.769-1.949-1.153-3.978-1.153-6.088c0-2.139,0.383-4.162,1.153-6.066c0.769-1.904,1.833-3.561,3.193-4.968
		c1.36-1.406,2.956-2.52,4.79-3.341c1.833-0.82,3.813-1.231,5.942-1.231c2.779,0,5.218,0.609,7.318,1.824
		c2.099,1.217,3.665,2.88,4.701,4.99l-5.455,4.045c-0.651-1.406-1.589-2.498-2.816-3.275c-1.227-0.776-2.549-1.165-3.969-1.165
		c-1.124,0-2.136,0.242-3.038,0.725c-0.902,0.483-1.686,1.158-2.35,2.023c-0.665,0.865-1.175,1.868-1.53,3.011
		c-0.355,1.144-0.532,2.374-0.532,3.693c0,1.349,0.192,2.594,0.576,3.737c0.384,1.143,0.916,2.132,1.597,2.967
		c0.68,0.835,1.492,1.488,2.438,1.957c0.947,0.47,1.981,0.704,3.104,0.704c1.301,0,2.543-0.315,3.726-0.945
		c1.182-0.63,2.291-1.59,3.326-2.879v-1.055h-6.074v-5.231h12.106v16.31h-6.032V268.612z"/>
	<path fill="#213D77" d="M651.196,265.315v6.33h-22.129v-31.212h21.73v6.33H636.34v6.066h12.417v5.847H636.34v6.639H651.196
		L651.196,265.315z"/>
	<path fill="#213D77" d="M698.737,249.576c-0.119-0.117-0.444-0.337-0.976-0.66c-0.532-0.322-1.197-0.66-1.996-1.01
		c-0.799-0.352-1.67-0.66-2.617-0.923c-0.946-0.264-1.893-0.395-2.838-0.395c-1.242,0-2.195,0.22-2.861,0.66
		c-0.665,0.439-0.998,1.084-0.998,1.935c0,0.527,0.148,0.967,0.443,1.319c0.296,0.351,0.717,0.667,1.264,0.945
		c0.547,0.279,1.226,0.535,2.04,0.77c0.812,0.235,1.752,0.498,2.816,0.791c1.508,0.411,2.867,0.857,4.08,1.341
		c1.212,0.484,2.247,1.085,3.104,1.802c0.858,0.718,1.515,1.59,1.974,2.616c0.458,1.026,0.688,2.258,0.688,3.693
		c0,1.758-0.333,3.246-0.997,4.462c-0.665,1.217-1.546,2.198-2.639,2.946c-1.094,0.747-2.358,1.29-3.792,1.627
		C694,271.83,692.53,272,691.021,272c-1.153,0-2.328-0.088-3.525-0.264c-1.197-0.176-2.372-0.432-3.526-0.769
		c-1.153-0.337-2.276-0.739-3.369-1.209c-1.094-0.468-2.099-1.01-3.015-1.626l3.192-6.286c0.148,0.147,0.547,0.425,1.197,0.835
		c0.65,0.41,1.448,0.821,2.395,1.231c0.946,0.411,2.011,0.777,3.193,1.099c1.182,0.323,2.379,0.484,3.592,0.484
		c2.572,0,3.859-0.777,3.859-2.33c0-0.586-0.193-1.07-0.577-1.45c-0.384-0.381-0.916-0.725-1.596-1.033
		c-0.681-0.308-1.479-0.593-2.395-0.857c-0.917-0.264-1.922-0.557-3.015-0.879c-1.449-0.439-2.705-0.916-3.769-1.428
		c-1.065-0.512-1.952-1.106-2.661-1.78c-0.71-0.674-1.235-1.45-1.574-2.33c-0.34-0.879-0.51-1.905-0.51-3.077
		c0-1.641,0.31-3.092,0.931-4.352c0.621-1.26,1.463-2.323,2.528-3.188c1.064-0.864,2.299-1.517,3.703-1.957
		c1.404-0.44,2.89-0.66,4.456-0.66c1.123,0,2.218,0.103,3.282,0.308c1.064,0.205,2.076,0.469,3.038,0.791
		c0.96,0.323,1.869,0.689,2.727,1.099c0.857,0.411,1.625,0.821,2.306,1.231L698.737,249.576z"/>
</g>
<path fill="#213D77" d="M308.936,190.151h-41.106V0h41.009v81.494L383.749,0h53.039l-78.779,81.494l51.239,66.511
	c4.615,6.258,14.057,6.206,18.602-0.103L532.254,0h49.708L456.997,176.539l-19.1,27.195h-39.9l-61.328-82.291
	c-9.809-14.252-27.829,0.704-27.829,16.944L308.936,190.151z"/>
</svg>
