<?xml version="1.0"?>
<!--Icons from directory ""-->
<svg xmlns="http://www.w3.org/2000/svg" width="300" height="524" viewBox="0 0 300 524"><svg xmlns:xlink="http://www.w3.org/1999/xlink" id="facebook-hover" xml:space="preserve" height="16" viewBox="4.911 1.143 9 16" width="9" version="1.1" y="0" x="0px" enable-background="new 4.911 1.143 9 16"><path d="m13.911 1.258v2.538h-1.636c-0.597 0-1 0.115-1.208 0.346s-0.312 0.577-0.313 1.039v1.817h3.052l-0.406 2.847h-2.646v7.298h-3.187v-7.298h-2.656v-2.846h2.656v-2.097c0-1.192 0.361-2.117 1.083-2.774s1.684-0.986 2.885-0.985c1.021 0 1.813 0.038 2.376 0.115z" fill="#3B5998"/></svg><svg xmlns:xlink="http://www.w3.org/1999/xlink" id="facebook" xml:space="preserve" height="16" viewBox="4.911 1.143 9 16" width="9" version="1.1" y="16" x="0px" enable-background="new 4.911 1.143 9 16"><path d="m13.911 1.258v2.538h-1.636c-0.597 0-1 0.115-1.208 0.346s-0.312 0.577-0.313 1.039v1.817h3.052l-0.406 2.847h-2.646v7.298h-3.187v-7.298h-2.656v-2.846h2.656v-2.097c0-1.192 0.361-2.117 1.083-2.774s1.684-0.986 2.885-0.985c1.021 0 1.813 0.038 2.376 0.115z"/></svg><svg xmlns:xlink="http://www.w3.org/1999/xlink" id="instagram-hover" xml:space="preserve" height="15" viewBox="6.714 2.286 14.001 15" width="14" version="1.1" y="32" x="0px" enable-background="new 6.714 2.286 14.001 15"><path d="m19.128 14.961v-6.328h-1.231c0.121 0.41 0.182 0.837 0.182 1.279 0 0.82-0.194 1.577-0.583 2.271-0.389 0.693-0.918 1.242-1.586 1.646s-1.397 0.605-2.188 0.605c-1.197 0-2.221-0.441-3.072-1.323s-1.276-1.948-1.276-3.198c0-0.443 0.061-0.869 0.182-1.279h-1.284v6.328c0 0.169 0.053 0.311 0.16 0.425s0.239 0.171 0.397 0.171h9.743c0.152 0 0.282-0.057 0.392-0.171 0.109-0.115 0.164-0.257 0.164-0.426zm-2.588-5.205c0-0.807-0.275-1.496-0.825-2.066s-1.214-0.855-1.992-0.855c-0.772 0-1.433 0.285-1.982 0.855s-0.825 1.258-0.825 2.066c0 0.807 0.275 1.496 0.825 2.066s1.211 0.855 1.982 0.855c0.778 0 1.442-0.285 1.992-0.855s0.825-1.259 0.825-2.066zm2.588-3.515v-1.611c0-0.182-0.061-0.34-0.182-0.474s-0.27-0.2-0.447-0.2h-1.586c-0.176 0-0.325 0.067-0.447 0.2s-0.182 0.291-0.182 0.474v1.611c0 0.189 0.061 0.348 0.182 0.479s0.27 0.195 0.447 0.195h1.586c0.176 0 0.325-0.065 0.447-0.195s0.182-0.29 0.182-0.479zm1.587-2.031v11.152c0 0.527-0.176 0.98-0.529 1.357-0.353 0.378-0.775 0.567-1.267 0.567h-10.409c-0.492 0-0.914-0.189-1.267-0.567s-0.529-0.83-0.529-1.357v-11.152c0-0.527 0.176-0.98 0.529-1.357s0.775-0.567 1.267-0.567h10.409c0.492 0 0.914 0.189 1.267 0.567 0.352 0.377 0.529 0.83 0.529 1.357z" fill="#3F729B"/></svg><svg xmlns:xlink="http://www.w3.org/1999/xlink" id="instagram" xml:space="preserve" height="15" viewBox="6.715 2.286 14 15" width="14" version="1.1" y="47" x="0px" enable-background="new 6.715 2.286 14 15"><path d="m19.128 14.961v-6.328h-1.231c0.121 0.41 0.182 0.837 0.182 1.279 0 0.82-0.194 1.577-0.583 2.271-0.389 0.693-0.918 1.242-1.586 1.646s-1.397 0.605-2.188 0.605c-1.197 0-2.221-0.441-3.072-1.323s-1.276-1.948-1.276-3.198c0-0.443 0.061-0.869 0.182-1.279h-1.284v6.328c0 0.169 0.053 0.311 0.16 0.425s0.239 0.171 0.397 0.171h9.743c0.152 0 0.282-0.057 0.392-0.171 0.109-0.115 0.164-0.257 0.164-0.426zm-2.588-5.205c0-0.807-0.275-1.496-0.825-2.066s-1.214-0.855-1.992-0.855c-0.772 0-1.433 0.285-1.982 0.855s-0.825 1.258-0.825 2.066c0 0.807 0.275 1.496 0.825 2.066s1.211 0.855 1.982 0.855c0.778 0 1.442-0.285 1.992-0.855s0.825-1.259 0.825-2.066zm2.588-3.515v-1.611c0-0.182-0.061-0.34-0.182-0.474s-0.27-0.2-0.447-0.2h-1.586c-0.176 0-0.325 0.067-0.447 0.2s-0.182 0.291-0.182 0.474v1.611c0 0.189 0.061 0.348 0.182 0.479s0.27 0.195 0.447 0.195h1.586c0.176 0 0.325-0.065 0.447-0.195s0.182-0.29 0.182-0.479zm1.587-2.031v11.152c0 0.527-0.176 0.98-0.529 1.357-0.353 0.378-0.775 0.567-1.267 0.567h-10.409c-0.492 0-0.914-0.189-1.267-0.567s-0.529-0.83-0.529-1.357v-11.152c0-0.527 0.176-0.98 0.529-1.357s0.775-0.567 1.267-0.567h10.409c0.492 0 0.914 0.189 1.267 0.567 0.352 0.377 0.529 0.83 0.529 1.357z"/></svg><svg xmlns:xlink="http://www.w3.org/1999/xlink" id="linkedin-hover" xml:space="preserve" height="14" viewBox="4.5 2.312 15 14" width="15" version="1.1" y="62" x="0px" enable-background="new 4.5 2.312 15 14"><path d="m7.908 6.861v9.45h-3.222v-9.45h3.222zm0.205-2.918c0.007 0.464-0.158 0.852-0.493 1.163s-0.776 0.467-1.323 0.468h-0.019c-0.534 0-0.964-0.156-1.289-0.468s-0.489-0.699-0.489-1.163c0-0.47 0.168-0.86 0.503-1.168s0.773-0.463 1.314-0.463 0.973 0.154 1.299 0.463c0.325 0.308 0.491 0.697 0.497 1.168zm11.387 6.952v5.417h-3.213v-5.054c0-0.668-0.132-1.191-0.396-1.569s-0.676-0.567-1.236-0.568c-0.41 0-0.753 0.11-1.03 0.329s-0.483 0.491-0.62 0.815c-0.072 0.191-0.108 0.448-0.108 0.773v5.274h-3.212c0.013-2.536 0.019-4.593 0.019-6.17s-0.003-2.517-0.01-2.822l-0.01-0.458h3.213v1.373h-0.019c0.13-0.203 0.264-0.381 0.401-0.534s0.321-0.318 0.552-0.496c0.231-0.178 0.514-0.316 0.849-0.415s0.708-0.148 1.118-0.148c1.113 0 2.009 0.361 2.686 1.082 0.677 0.722 1.015 1.779 1.016 3.171z" fill="#0077B5"/></svg><svg xmlns:xlink="http://www.w3.org/1999/xlink" id="linkedin" xml:space="preserve" height="14" viewBox="4.5 2.312 15 14" width="15" version="1.1" y="76" x="0px" enable-background="new 4.5 2.312 15 14"><path d="m7.908 6.861v9.45h-3.222v-9.45h3.222zm0.205-2.918c0.007 0.464-0.158 0.852-0.493 1.163s-0.776 0.467-1.323 0.468h-0.019c-0.534 0-0.964-0.156-1.289-0.468s-0.489-0.699-0.489-1.163c0-0.47 0.168-0.86 0.503-1.168s0.773-0.463 1.314-0.463 0.973 0.154 1.299 0.463c0.325 0.308 0.491 0.697 0.497 1.168zm11.387 6.952v5.417h-3.213v-5.054c0-0.668-0.132-1.191-0.396-1.569s-0.676-0.567-1.236-0.568c-0.41 0-0.753 0.11-1.03 0.329s-0.483 0.491-0.62 0.815c-0.072 0.191-0.108 0.448-0.108 0.773v5.274h-3.212c0.013-2.536 0.019-4.593 0.019-6.17s-0.003-2.517-0.01-2.822l-0.01-0.458h3.213v1.373h-0.019c0.13-0.203 0.264-0.381 0.401-0.534s0.321-0.318 0.552-0.496 0.514-0.316 0.849-0.415 0.708-0.148 1.118-0.148c1.113 0 2.009 0.361 2.686 1.082 0.677 0.722 1.015 1.779 1.016 3.171z"/></svg><svg xmlns:xlink="http://www.w3.org/1999/xlink" id="logo-full_blue" xml:space="preserve" height="126" viewBox="54.862 0 648 272" width="300" version="1.1" y="90" x="0px" enable-background="new 54.862 0 648 272"><g fill="#213D77">	<path d="m54.862 271.64v-31.212h7.273v14.07l12.151-14.067h7.539l-11.797 13.935 12.594 17.277h-7.672l-9.224-13.232-3.592 3.868v9.363h-7.272z"/>	<path d="m120.81 271.91c-2.247 0-4.287-0.454-6.12-1.362-1.834-0.908-3.408-2.102-4.722-3.583-1.316-1.479-2.336-3.172-3.06-5.077-0.725-1.905-1.087-3.868-1.087-5.891 0-2.051 0.376-4.029 1.131-5.935 0.753-1.905 1.803-3.583 3.149-5.034 1.345-1.45 2.941-2.608 4.79-3.472 1.847-0.865 3.865-1.297 6.054-1.297 2.246 0 4.286 0.454 6.12 1.362 1.833 0.909 3.407 2.11 4.722 3.605s2.329 3.195 3.038 5.1c0.71 1.905 1.065 3.839 1.065 5.803 0 2.052-0.377 4.029-1.131 5.934-0.754 1.906-1.797 3.583-3.127 5.034-1.331 1.45-2.92 2.615-4.767 3.495-1.84 0.89-3.86 1.33-6.04 1.33zm-7.59-15.83c0 1.202 0.17 2.368 0.511 3.495 0.34 1.128 0.827 2.132 1.463 3.011 0.635 0.879 1.434 1.583 2.395 2.11s2.063 0.792 3.304 0.792c1.271 0 2.38-0.278 3.327-0.835 0.946-0.556 1.736-1.282 2.372-2.176 0.635-0.893 1.109-1.905 1.42-3.033 0.31-1.128 0.465-2.279 0.465-3.451 0-1.201-0.17-2.367-0.51-3.495-0.34-1.127-0.836-2.124-1.485-2.989-0.651-0.864-1.449-1.553-2.395-2.066-0.947-0.512-2.025-0.77-3.238-0.77-1.272 0-2.38 0.271-3.326 0.813-0.947 0.543-1.737 1.253-2.372 2.132-0.636 0.879-1.116 1.884-1.441 3.011-0.3 1.14-0.46 2.29-0.46 3.46z"/>	<path d="m183.2 249.58c-0.119-0.117-0.444-0.337-0.976-0.66-0.533-0.322-1.197-0.66-1.995-1.01-0.799-0.352-1.671-0.66-2.617-0.923-0.947-0.264-1.893-0.395-2.838-0.395-1.242 0-2.195 0.22-2.861 0.66-0.665 0.439-0.998 1.084-0.998 1.935 0 0.527 0.148 0.967 0.444 1.319 0.295 0.351 0.717 0.667 1.264 0.945 0.546 0.279 1.226 0.535 2.04 0.77 0.813 0.235 1.751 0.498 2.816 0.791 1.508 0.411 2.867 0.857 4.08 1.341 1.212 0.484 2.246 1.085 3.104 1.802 0.857 0.718 1.515 1.59 1.974 2.616 0.458 1.026 0.688 2.258 0.688 3.693 0 1.758-0.333 3.246-0.998 4.462-0.665 1.217-1.545 2.198-2.638 2.946-1.094 0.747-2.358 1.29-3.792 1.627s-2.904 0.506-4.413 0.506c-1.153 0-2.329-0.088-3.526-0.264s-2.372-0.432-3.525-0.769-2.277-0.739-3.37-1.209c-1.094-0.468-2.1-1.01-3.015-1.626l3.192-6.286c0.148 0.147 0.546 0.425 1.197 0.835 0.65 0.41 1.448 0.821 2.395 1.231 0.946 0.411 2.011 0.777 3.192 1.099 1.182 0.323 2.38 0.484 3.593 0.484 2.572 0 3.858-0.777 3.858-2.33 0-0.586-0.192-1.07-0.576-1.45-0.385-0.381-0.917-0.725-1.597-1.033s-1.479-0.593-2.395-0.857c-0.917-0.264-1.922-0.557-3.015-0.879-1.449-0.439-2.706-0.916-3.77-1.428s-1.952-1.106-2.66-1.78c-0.71-0.674-1.235-1.45-1.574-2.33-0.34-0.879-0.51-1.905-0.51-3.077 0-1.641 0.31-3.092 0.931-4.352s1.463-2.323 2.528-3.188c1.065-0.864 2.299-1.517 3.703-1.957s2.89-0.66 4.457-0.66c1.123 0 2.218 0.103 3.281 0.308 1.065 0.205 2.076 0.469 3.038 0.791 0.96 0.323 1.869 0.689 2.727 1.099 0.857 0.411 1.626 0.821 2.306 1.231l-3.11 5.97z"/>	<path d="m239.88 246.76h-9.579v24.882h-7.273v-24.882h-9.623v-6.33h26.475v6.33z"/>	<path d="m289.95 265.32v6.33h-22.13v-31.212h21.73v6.33h-14.46v6.066h12.417v5.847h-12.42v6.639h14.86v-0.01z"/>	<path d="m318.86 271.64v-31.212h14.191c1.478 0 2.845 0.308 4.101 0.923s2.343 1.422 3.26 2.418c0.916 0.997 1.633 2.125 2.151 3.385 0.517 1.261 0.776 2.536 0.776 3.825 0 0.967-0.118 1.898-0.355 2.792s-0.576 1.736-1.02 2.527c-0.443 0.792-0.983 1.502-1.618 2.132-0.636 0.631-1.353 1.165-2.151 1.605l7.229 11.606h-8.204l-6.341-10.067h-4.745v10.067h-7.28zm7.27-16.35h6.652c0.857 0 1.597-0.403 2.217-1.209 0.621-0.805 0.931-1.839 0.931-3.099 0-1.289-0.355-2.314-1.065-3.077-0.71-0.762-1.479-1.144-2.306-1.144h-6.43l0.01 8.53z"/>	<path d="m411.1 240.43l7.45 22.157 7.317-22.157h7.673l-11.974 31.212h-6.075l-12.063-31.212h7.66z"/>	<path d="m472.79 271.91c-2.247 0-4.287-0.454-6.12-1.362-1.834-0.908-3.407-2.102-4.722-3.583-1.316-1.479-2.336-3.172-3.06-5.077-0.725-1.905-1.087-3.868-1.087-5.891 0-2.051 0.376-4.029 1.131-5.935 0.754-1.905 1.803-3.583 3.149-5.034 1.345-1.45 2.941-2.608 4.79-3.472 1.847-0.865 3.865-1.297 6.053-1.297 2.247 0 4.287 0.454 6.12 1.362 1.834 0.909 3.407 2.11 4.723 3.605 1.314 1.495 2.328 3.195 3.038 5.1s1.064 3.839 1.064 5.803c0 2.052-0.376 4.029-1.131 5.934-0.753 1.906-1.796 3.583-3.126 5.034-1.331 1.45-2.921 2.615-4.768 3.495-1.84 0.89-3.85 1.33-6.04 1.33zm-7.58-15.83c0 1.202 0.169 2.368 0.51 3.495 0.34 1.128 0.828 2.132 1.464 3.011 0.635 0.879 1.433 1.583 2.395 2.11 0.96 0.527 2.062 0.792 3.304 0.792 1.271 0 2.379-0.278 3.327-0.835 0.945-0.556 1.736-1.282 2.372-2.176 0.635-0.893 1.108-1.905 1.419-3.033 0.31-1.128 0.466-2.279 0.466-3.451 0-1.201-0.171-2.367-0.511-3.495-0.34-1.127-0.836-2.124-1.485-2.989-0.651-0.864-1.449-1.553-2.395-2.066-0.947-0.512-2.026-0.77-3.238-0.77-1.271 0-2.38 0.271-3.326 0.813-0.947 0.543-1.738 1.253-2.372 2.132-0.636 0.879-1.117 1.884-1.442 3.011-0.33 1.14-0.49 2.29-0.49 3.46z"/>	<path d="m529.69 271.91c-2.247 0-4.287-0.454-6.12-1.362s-3.407-2.102-4.722-3.583c-1.316-1.479-2.336-3.172-3.06-5.077-0.725-1.905-1.087-3.868-1.087-5.891 0-2.051 0.376-4.029 1.131-5.935 0.754-1.905 1.803-3.583 3.149-5.034 1.345-1.45 2.942-2.608 4.79-3.472 1.847-0.865 3.865-1.297 6.053-1.297 2.247 0 4.287 0.454 6.12 1.362 1.833 0.909 3.407 2.11 4.723 3.605 1.314 1.495 2.328 3.195 3.038 5.1s1.064 3.839 1.064 5.803c0 2.052-0.376 4.029-1.131 5.934-0.753 1.906-1.796 3.583-3.126 5.034-1.331 1.45-2.92 2.615-4.768 3.495-1.84 0.89-3.86 1.33-6.04 1.33zm-7.59-15.83c0 1.202 0.169 2.368 0.51 3.495 0.339 1.128 0.828 2.132 1.464 3.011 0.635 0.879 1.433 1.583 2.395 2.11 0.96 0.527 2.062 0.792 3.304 0.792 1.271 0 2.379-0.278 3.327-0.835 0.945-0.556 1.736-1.282 2.372-2.176 0.635-0.893 1.108-1.905 1.419-3.033 0.31-1.128 0.466-2.279 0.466-3.451 0-1.201-0.171-2.367-0.51-3.495-0.34-1.127-0.836-2.124-1.485-2.989-0.651-0.864-1.449-1.553-2.395-2.066-0.947-0.512-2.026-0.77-3.238-0.77-1.271 0-2.38 0.271-3.326 0.813-0.947 0.543-1.738 1.253-2.372 2.132-0.636 0.879-1.117 1.884-1.441 3.011-0.31 1.14-0.48 2.29-0.48 3.46z"/>	<path d="m593.81 268.61c-1.123 1.115-2.313 1.935-3.57 2.462-1.257 0.528-2.624 0.792-4.102 0.792-1.981 0-3.852-0.439-5.609-1.319-1.76-0.879-3.298-2.051-4.613-3.516-1.316-1.465-2.358-3.172-3.127-5.122-0.769-1.949-1.153-3.978-1.153-6.088 0-2.139 0.383-4.162 1.153-6.066 0.769-1.904 1.833-3.561 3.193-4.968 1.36-1.406 2.956-2.52 4.79-3.341 1.833-0.82 3.813-1.231 5.942-1.231 2.779 0 5.218 0.609 7.318 1.824 2.099 1.217 3.665 2.88 4.701 4.99l-5.455 4.045c-0.651-1.406-1.589-2.498-2.816-3.275-1.227-0.776-2.549-1.165-3.969-1.165-1.124 0-2.136 0.242-3.038 0.725s-1.686 1.158-2.35 2.023c-0.665 0.865-1.175 1.868-1.53 3.011-0.355 1.144-0.532 2.374-0.532 3.693 0 1.349 0.192 2.594 0.576 3.737s0.916 2.132 1.597 2.967c0.68 0.835 1.492 1.488 2.438 1.957 0.947 0.47 1.981 0.704 3.104 0.704 1.301 0 2.543-0.315 3.726-0.945 1.182-0.63 2.291-1.59 3.326-2.879v-1.055h-6.074v-5.231h12.106v16.31h-6.032v-3.01z"/>	<path d="m651.2 265.32v6.33h-22.129v-31.212h21.73v6.33h-14.46v6.066h12.417v5.847h-12.42v6.639h14.86v-0.01z"/>	<path d="m698.74 249.58c-0.119-0.117-0.444-0.337-0.976-0.66-0.532-0.322-1.197-0.66-1.996-1.01-0.799-0.352-1.67-0.66-2.617-0.923-0.946-0.264-1.893-0.395-2.838-0.395-1.242 0-2.195 0.22-2.861 0.66-0.665 0.439-0.998 1.084-0.998 1.935 0 0.527 0.148 0.967 0.443 1.319 0.296 0.351 0.717 0.667 1.264 0.945 0.547 0.279 1.226 0.535 2.04 0.77 0.812 0.235 1.752 0.498 2.816 0.791 1.508 0.411 2.867 0.857 4.08 1.341 1.212 0.484 2.247 1.085 3.104 1.802 0.858 0.718 1.515 1.59 1.974 2.616 0.458 1.026 0.688 2.258 0.688 3.693 0 1.758-0.333 3.246-0.997 4.462-0.665 1.217-1.546 2.198-2.639 2.946-1.094 0.747-2.358 1.29-3.792 1.627-1.41 0.32-2.88 0.49-4.39 0.49-1.153 0-2.328-0.088-3.525-0.264s-2.372-0.432-3.526-0.769c-1.153-0.337-2.276-0.739-3.369-1.209-1.094-0.468-2.099-1.01-3.015-1.626l3.192-6.286c0.148 0.147 0.547 0.425 1.197 0.835s1.448 0.821 2.395 1.231c0.946 0.411 2.011 0.777 3.193 1.099 1.182 0.323 2.379 0.484 3.592 0.484 2.572 0 3.859-0.777 3.859-2.33 0-0.586-0.193-1.07-0.577-1.45-0.384-0.381-0.916-0.725-1.596-1.033-0.681-0.308-1.479-0.593-2.395-0.857-0.917-0.264-1.922-0.557-3.015-0.879-1.449-0.439-2.705-0.916-3.769-1.428-1.065-0.512-1.952-1.106-2.661-1.78-0.71-0.674-1.235-1.45-1.574-2.33-0.34-0.879-0.51-1.905-0.51-3.077 0-1.641 0.31-3.092 0.931-4.352s1.463-2.323 2.528-3.188c1.064-0.864 2.299-1.517 3.703-1.957s2.89-0.66 4.456-0.66c1.123 0 2.218 0.103 3.282 0.308s2.076 0.469 3.038 0.791c0.96 0.323 1.869 0.689 2.727 1.099 0.857 0.411 1.625 0.821 2.306 1.231l-3.13 5.99z"/></g><path d="m308.94 190.15h-41.106v-190.15h41.009v81.494l74.91-81.494h53.039l-78.779 81.494 51.239 66.511c4.615 6.258 14.057 6.206 18.602-0.103l104.4-147.9h49.708l-124.96 176.54-19.1 27.195h-39.9l-61.328-82.291c-9.809-14.252-27.829 0.704-27.829 16.944l0.1 51.76z" fill="#213D77"/></svg><svg xmlns:xlink="http://www.w3.org/1999/xlink" id="logo-full_green" xml:space="preserve" height="126" viewBox="170.279 -113 648 271.908" width="300" version="1.1" y="216" x="0px" enable-background="new 170.279 -113 648 271.908"><g fill="#008B29">	<path d="m170.28 158.64v-31.212h7.273v14.07l12.151-14.067h7.539l-11.797 13.935 12.594 17.277h-7.672l-9.224-13.232-3.592 3.868v9.363h-7.27z"/>	<path d="m236.22 158.91c-2.247 0-4.287-0.454-6.12-1.362-1.834-0.908-3.408-2.102-4.722-3.583-1.316-1.479-2.336-3.172-3.06-5.077-0.725-1.905-1.087-3.868-1.087-5.891 0-2.051 0.376-4.029 1.131-5.935 0.753-1.905 1.803-3.583 3.149-5.034 1.345-1.45 2.941-2.608 4.79-3.472 1.847-0.865 3.865-1.297 6.054-1.297 2.246 0 4.286 0.454 6.12 1.362 1.833 0.909 3.407 2.11 4.722 3.605s2.329 3.195 3.038 5.1c0.71 1.905 1.065 3.839 1.065 5.803 0 2.052-0.377 4.029-1.131 5.934-0.754 1.906-1.797 3.583-3.127 5.034-1.331 1.45-2.92 2.615-4.767 3.495-1.84 0.89-3.86 1.33-6.05 1.33zm-7.58-15.83c0 1.202 0.17 2.368 0.511 3.495 0.34 1.128 0.827 2.132 1.463 3.011 0.635 0.879 1.434 1.583 2.395 2.11 0.96 0.527 2.063 0.792 3.304 0.792 1.271 0 2.38-0.278 3.327-0.835 0.946-0.556 1.736-1.282 2.372-2.176 0.635-0.894 1.109-1.905 1.42-3.033s0.465-2.279 0.465-3.451c0-1.201-0.17-2.367-0.51-3.495-0.34-1.127-0.836-2.124-1.485-2.989-0.651-0.864-1.449-1.553-2.395-2.066-0.947-0.512-2.025-0.77-3.238-0.77-1.272 0-2.38 0.271-3.326 0.813-0.947 0.543-1.737 1.253-2.372 2.132-0.636 0.879-1.116 1.884-1.441 3.011-0.3 1.14-0.46 2.29-0.46 3.46z"/>	<path d="m298.62 136.58c-0.119-0.117-0.444-0.337-0.976-0.66-0.533-0.322-1.197-0.66-1.995-1.01-0.799-0.352-1.671-0.66-2.617-0.923-0.947-0.264-1.893-0.395-2.838-0.395-1.242 0-2.195 0.22-2.861 0.66-0.665 0.439-0.998 1.084-0.998 1.935 0 0.527 0.148 0.967 0.444 1.319 0.295 0.351 0.717 0.667 1.264 0.945 0.546 0.279 1.226 0.535 2.04 0.77 0.813 0.235 1.751 0.498 2.816 0.791 1.508 0.411 2.867 0.857 4.08 1.341 1.212 0.484 2.246 1.085 3.104 1.802 0.857 0.718 1.515 1.59 1.974 2.616 0.458 1.026 0.688 2.258 0.688 3.693 0 1.758-0.333 3.246-0.998 4.462-0.665 1.217-1.545 2.198-2.638 2.946-1.094 0.747-2.358 1.29-3.792 1.627s-2.904 0.506-4.413 0.506c-1.153 0-2.329-0.088-3.526-0.265-1.197-0.175-2.372-0.432-3.525-0.769s-2.277-0.739-3.37-1.209c-1.094-0.468-2.1-1.01-3.015-1.626l3.192-6.286c0.148 0.147 0.546 0.425 1.197 0.835 0.65 0.41 1.448 0.821 2.395 1.231 0.946 0.411 2.011 0.777 3.192 1.099 1.182 0.323 2.38 0.484 3.593 0.484 2.572 0 3.858-0.777 3.858-2.33 0-0.586-0.192-1.07-0.576-1.45-0.385-0.381-0.917-0.725-1.597-1.033s-1.479-0.593-2.395-0.857c-0.917-0.264-1.922-0.557-3.015-0.879-1.449-0.439-2.706-0.916-3.77-1.428s-1.952-1.106-2.661-1.78c-0.71-0.674-1.235-1.45-1.574-2.33-0.34-0.879-0.51-1.905-0.51-3.077 0-1.641 0.31-3.092 0.931-4.352s1.463-2.323 2.528-3.188c1.065-0.864 2.299-1.517 3.703-1.957s2.89-0.66 4.457-0.66c1.123 0 2.218 0.103 3.281 0.308 1.065 0.205 2.076 0.469 3.038 0.791 0.96 0.323 1.869 0.689 2.727 1.099 0.857 0.411 1.626 0.821 2.306 1.231l-3.11 5.97z"/>	<path d="m355.3 133.76h-9.579v24.882h-7.273v-24.882h-9.623v-6.33h26.475v6.33z"/>	<path d="m405.36 152.32v6.33h-22.13v-31.212h21.73v6.33h-14.457v6.066h12.417v5.847h-12.417v6.639l14.86-0.01z"/>	<path d="m434.28 158.64v-31.212h14.191c1.478 0 2.845 0.308 4.101 0.923s2.343 1.422 3.26 2.418c0.916 0.997 1.633 2.125 2.151 3.385 0.517 1.261 0.776 2.536 0.776 3.825 0 0.967-0.118 1.898-0.355 2.792s-0.576 1.736-1.02 2.527c-0.443 0.792-0.983 1.502-1.618 2.132-0.636 0.631-1.353 1.165-2.151 1.605l7.229 11.606h-8.204l-6.341-10.067h-4.745v10.067h-7.28zm7.27-16.35h6.652c0.857 0 1.597-0.403 2.217-1.209 0.621-0.805 0.931-1.839 0.931-3.099 0-1.289-0.355-2.314-1.065-3.077-0.71-0.762-1.479-1.144-2.306-1.144h-6.43l0.01 8.53z"/>	<path d="m526.52 127.43l7.45 22.157 7.317-22.157h7.673l-11.974 31.212h-6.075l-12.063-31.212h7.66z"/>	<path d="m588.21 158.91c-2.247 0-4.287-0.454-6.12-1.362-1.834-0.908-3.407-2.102-4.722-3.583-1.316-1.479-2.336-3.172-3.06-5.077-0.725-1.905-1.087-3.868-1.087-5.891 0-2.051 0.376-4.029 1.131-5.935 0.754-1.905 1.803-3.583 3.149-5.034 1.345-1.45 2.941-2.608 4.79-3.472 1.847-0.865 3.865-1.297 6.053-1.297 2.247 0 4.287 0.454 6.12 1.362 1.834 0.909 3.407 2.11 4.723 3.605 1.314 1.495 2.328 3.195 3.038 5.1s1.064 3.839 1.064 5.803c0 2.052-0.376 4.029-1.131 5.934-0.753 1.906-1.796 3.583-3.126 5.034-1.331 1.45-2.921 2.615-4.768 3.495-1.84 0.89-3.86 1.33-6.04 1.33zm-7.59-15.83c0 1.202 0.169 2.368 0.51 3.495 0.34 1.128 0.828 2.132 1.464 3.011 0.635 0.879 1.433 1.583 2.395 2.11 0.96 0.527 2.062 0.792 3.304 0.792 1.271 0 2.379-0.278 3.327-0.835 0.945-0.556 1.736-1.282 2.372-2.176 0.635-0.894 1.108-1.905 1.419-3.033s0.466-2.279 0.466-3.451c0-1.201-0.171-2.367-0.51-3.495-0.34-1.127-0.836-2.124-1.485-2.989-0.651-0.864-1.449-1.553-2.395-2.066-0.947-0.512-2.026-0.77-3.238-0.77-1.271 0-2.38 0.271-3.326 0.813-0.947 0.543-1.738 1.253-2.372 2.132-0.636 0.879-1.117 1.884-1.442 3.011-0.32 1.14-0.48 2.29-0.48 3.46z"/>	<path d="m645.1 158.91c-2.247 0-4.287-0.454-6.12-1.362s-3.407-2.102-4.722-3.583c-1.316-1.479-2.336-3.172-3.06-5.077-0.725-1.905-1.087-3.868-1.087-5.891 0-2.051 0.376-4.029 1.131-5.935 0.754-1.905 1.803-3.583 3.149-5.034 1.345-1.45 2.942-2.608 4.79-3.472 1.847-0.865 3.865-1.297 6.053-1.297 2.247 0 4.287 0.454 6.12 1.362 1.833 0.909 3.407 2.11 4.723 3.605 1.314 1.495 2.328 3.195 3.038 5.1s1.064 3.839 1.064 5.803c0 2.052-0.376 4.029-1.131 5.934-0.753 1.906-1.796 3.583-3.126 5.034-1.331 1.45-2.92 2.615-4.768 3.495-1.83 0.89-3.85 1.33-6.04 1.33zm-7.58-15.83c0 1.202 0.169 2.368 0.51 3.495 0.339 1.128 0.828 2.132 1.464 3.011 0.635 0.879 1.433 1.583 2.395 2.11 0.96 0.527 2.062 0.792 3.304 0.792 1.271 0 2.379-0.278 3.327-0.835 0.945-0.556 1.736-1.282 2.372-2.176 0.635-0.894 1.108-1.905 1.419-3.033s0.466-2.279 0.466-3.451c0-1.201-0.171-2.367-0.51-3.495-0.34-1.127-0.836-2.124-1.485-2.989-0.651-0.864-1.449-1.553-2.395-2.066-0.947-0.512-2.026-0.77-3.238-0.77-1.271 0-2.38 0.271-3.326 0.813-0.947 0.543-1.738 1.253-2.372 2.132-0.636 0.879-1.117 1.884-1.441 3.011-0.32 1.14-0.48 2.29-0.48 3.46z"/>	<path d="m709.23 155.61c-1.123 1.115-2.313 1.935-3.57 2.462-1.257 0.528-2.624 0.792-4.102 0.792-1.981 0-3.852-0.439-5.609-1.319-1.76-0.879-3.298-2.051-4.613-3.516-1.316-1.465-2.358-3.172-3.127-5.122-0.769-1.949-1.153-3.978-1.153-6.088 0-2.139 0.383-4.162 1.153-6.066 0.769-1.904 1.833-3.561 3.193-4.968 1.36-1.406 2.956-2.52 4.79-3.341 1.833-0.82 3.813-1.231 5.942-1.231 2.779 0 5.218 0.609 7.318 1.824 2.099 1.217 3.665 2.88 4.701 4.99l-5.455 4.045c-0.651-1.406-1.589-2.498-2.816-3.275-1.227-0.776-2.549-1.165-3.969-1.165-1.124 0-2.136 0.242-3.038 0.725s-1.686 1.158-2.35 2.023c-0.665 0.865-1.175 1.868-1.53 3.011-0.355 1.144-0.532 2.374-0.532 3.693 0 1.349 0.192 2.594 0.576 3.737s0.916 2.132 1.597 2.967c0.68 0.835 1.492 1.488 2.438 1.957 0.947 0.47 1.981 0.704 3.104 0.704 1.301 0 2.543-0.315 3.726-0.945 1.182-0.63 2.291-1.59 3.326-2.879v-1.055h-6.074v-5.231h12.106v16.31h-6.032v-3.01z"/>	<path d="m766.61 152.32v6.33h-22.129v-31.212h21.73v6.33h-14.457v6.066h12.417v5.847h-12.417v6.639l14.86-0.01z"/>	<path d="m814.16 136.58c-0.119-0.117-0.444-0.337-0.976-0.66-0.532-0.322-1.197-0.66-1.996-1.01-0.799-0.352-1.67-0.66-2.617-0.923-0.946-0.264-1.893-0.395-2.838-0.395-1.242 0-2.195 0.22-2.861 0.66-0.665 0.439-0.998 1.084-0.998 1.935 0 0.527 0.148 0.967 0.443 1.319 0.296 0.351 0.717 0.667 1.264 0.945 0.547 0.279 1.226 0.535 2.04 0.77 0.812 0.235 1.752 0.498 2.816 0.791 1.508 0.411 2.867 0.857 4.08 1.341 1.212 0.484 2.247 1.085 3.104 1.802 0.858 0.718 1.515 1.59 1.974 2.616 0.458 1.026 0.688 2.258 0.688 3.693 0 1.758-0.333 3.246-0.997 4.462-0.665 1.217-1.546 2.198-2.639 2.946-1.094 0.747-2.358 1.29-3.792 1.627s-2.904 0.506-4.413 0.506c-1.153 0-2.328-0.088-3.525-0.265-1.197-0.175-2.372-0.432-3.526-0.769-1.153-0.337-2.276-0.739-3.369-1.209-1.094-0.468-2.099-1.01-3.015-1.626l3.192-6.286c0.148 0.147 0.547 0.425 1.197 0.835s1.448 0.821 2.395 1.231c0.946 0.411 2.011 0.777 3.193 1.099 1.182 0.323 2.379 0.484 3.592 0.484 2.572 0 3.859-0.777 3.859-2.33 0-0.586-0.193-1.07-0.577-1.45-0.384-0.381-0.916-0.725-1.596-1.033-0.681-0.308-1.479-0.593-2.395-0.857-0.917-0.264-1.922-0.557-3.015-0.879-1.449-0.439-2.705-0.916-3.769-1.428-1.065-0.512-1.952-1.106-2.661-1.78-0.71-0.674-1.235-1.45-1.574-2.33-0.34-0.879-0.51-1.905-0.51-3.077 0-1.641 0.31-3.092 0.931-4.352s1.463-2.323 2.528-3.188c1.064-0.864 2.299-1.517 3.703-1.957s2.89-0.66 4.456-0.66c1.123 0 2.218 0.103 3.282 0.308s2.076 0.469 3.038 0.791c0.96 0.323 1.869 0.689 2.727 1.099 0.857 0.411 1.625 0.821 2.306 1.231l-3.11 5.97z"/></g><path d="m424.35 77.151h-41.106v-190.15h41.009v81.494l74.92-81.494h53.039l-78.779 81.494 51.239 66.511c4.615 6.258 14.057 6.206 18.602-0.103l104.4-147.9h49.708l-124.97 176.54-19.1 27.195h-39.9l-61.32-82.292c-9.809-14.252-27.829 0.704-27.829 16.944l0.09 51.764z" fill="#008B29"/></svg><svg xmlns:xlink="http://www.w3.org/1999/xlink" id="logo-full_red" xml:space="preserve" height="126" viewBox="54.862 0 648 272" width="300" version="1.1" y="342" x="0px" enable-background="new 54.862 0 648 272"><g fill="#FF2D21">	<path d="m54.862 271.64v-31.212h7.273v14.07l12.151-14.067h7.539l-11.797 13.935 12.594 17.277h-7.672l-9.224-13.232-3.592 3.868v9.363h-7.272z"/>	<path d="m120.81 271.91c-2.247 0-4.287-0.454-6.12-1.362-1.834-0.908-3.408-2.102-4.722-3.583-1.316-1.479-2.336-3.172-3.06-5.077-0.725-1.905-1.087-3.868-1.087-5.891 0-2.051 0.376-4.029 1.131-5.935 0.753-1.905 1.803-3.583 3.149-5.034 1.345-1.45 2.941-2.608 4.79-3.472 1.847-0.865 3.865-1.297 6.054-1.297 2.246 0 4.286 0.454 6.12 1.362 1.833 0.909 3.407 2.11 4.722 3.605s2.329 3.195 3.038 5.1c0.71 1.905 1.065 3.839 1.065 5.803 0 2.052-0.377 4.029-1.131 5.934-0.754 1.906-1.797 3.583-3.127 5.034-1.331 1.45-2.92 2.615-4.767 3.495-1.84 0.89-3.86 1.33-6.04 1.33zm-7.59-15.83c0 1.202 0.17 2.368 0.511 3.495 0.34 1.128 0.827 2.132 1.463 3.011 0.635 0.879 1.434 1.583 2.395 2.11s2.063 0.792 3.304 0.792c1.271 0 2.38-0.278 3.327-0.835 0.946-0.556 1.736-1.282 2.372-2.176 0.635-0.893 1.109-1.905 1.42-3.033 0.31-1.128 0.465-2.279 0.465-3.451 0-1.201-0.17-2.367-0.51-3.495-0.34-1.127-0.836-2.124-1.485-2.989-0.651-0.864-1.449-1.553-2.395-2.066-0.947-0.512-2.025-0.77-3.238-0.77-1.272 0-2.38 0.271-3.326 0.813-0.947 0.543-1.737 1.253-2.372 2.132-0.636 0.879-1.116 1.884-1.441 3.011-0.3 1.14-0.46 2.29-0.46 3.46z"/>	<path d="m183.2 249.58c-0.119-0.117-0.444-0.337-0.976-0.66-0.533-0.322-1.197-0.66-1.995-1.01-0.799-0.352-1.671-0.66-2.617-0.923-0.947-0.264-1.893-0.395-2.838-0.395-1.242 0-2.195 0.22-2.861 0.66-0.665 0.439-0.998 1.084-0.998 1.935 0 0.527 0.148 0.967 0.444 1.319 0.295 0.351 0.717 0.667 1.264 0.945 0.546 0.279 1.226 0.535 2.04 0.77 0.813 0.235 1.751 0.498 2.816 0.791 1.508 0.411 2.867 0.857 4.08 1.341 1.212 0.484 2.246 1.085 3.104 1.802 0.857 0.718 1.515 1.59 1.974 2.616 0.458 1.026 0.688 2.258 0.688 3.693 0 1.758-0.333 3.246-0.998 4.462-0.665 1.217-1.545 2.198-2.638 2.946-1.094 0.747-2.358 1.29-3.792 1.627s-2.904 0.506-4.413 0.506c-1.153 0-2.329-0.088-3.526-0.264s-2.372-0.432-3.525-0.769-2.277-0.739-3.37-1.209c-1.094-0.468-2.1-1.01-3.015-1.626l3.192-6.286c0.148 0.147 0.546 0.425 1.197 0.835 0.65 0.41 1.448 0.821 2.395 1.231 0.946 0.411 2.011 0.777 3.192 1.099 1.182 0.323 2.38 0.484 3.593 0.484 2.572 0 3.858-0.777 3.858-2.33 0-0.586-0.192-1.07-0.576-1.45-0.385-0.381-0.917-0.725-1.597-1.033s-1.479-0.593-2.395-0.857c-0.917-0.264-1.922-0.557-3.015-0.879-1.449-0.439-2.706-0.916-3.77-1.428s-1.952-1.106-2.66-1.78c-0.71-0.674-1.235-1.45-1.574-2.33-0.34-0.879-0.51-1.905-0.51-3.077 0-1.641 0.31-3.092 0.931-4.352s1.463-2.323 2.528-3.188c1.065-0.864 2.299-1.517 3.703-1.957s2.89-0.66 4.457-0.66c1.123 0 2.218 0.103 3.281 0.308 1.065 0.205 2.076 0.469 3.038 0.791 0.96 0.323 1.869 0.689 2.727 1.099 0.857 0.411 1.626 0.821 2.306 1.231l-3.11 5.97z"/>	<path d="m239.88 246.76h-9.579v24.882h-7.273v-24.882h-9.623v-6.33h26.475v6.33z"/>	<path d="m289.95 265.32v6.33h-22.13v-31.212h21.73v6.33h-14.46v6.066h12.417v5.847h-12.42v6.639h14.86v-0.01z"/>	<path d="m318.86 271.64v-31.212h14.191c1.478 0 2.845 0.308 4.101 0.923s2.343 1.422 3.26 2.418c0.916 0.997 1.633 2.125 2.151 3.385 0.517 1.261 0.776 2.536 0.776 3.825 0 0.967-0.118 1.898-0.355 2.792s-0.576 1.736-1.02 2.527c-0.443 0.792-0.983 1.502-1.618 2.132-0.636 0.631-1.353 1.165-2.151 1.605l7.229 11.606h-8.204l-6.341-10.067h-4.745v10.067h-7.28zm7.27-16.35h6.652c0.857 0 1.597-0.403 2.217-1.209 0.621-0.805 0.931-1.839 0.931-3.099 0-1.289-0.355-2.314-1.065-3.077-0.71-0.762-1.479-1.144-2.306-1.144h-6.43l0.01 8.53z"/>	<path d="m411.1 240.43l7.45 22.157 7.317-22.157h7.673l-11.974 31.212h-6.075l-12.063-31.212h7.66z"/>	<path d="m472.79 271.91c-2.247 0-4.287-0.454-6.12-1.362-1.834-0.908-3.407-2.102-4.722-3.583-1.316-1.479-2.336-3.172-3.06-5.077-0.725-1.905-1.087-3.868-1.087-5.891 0-2.051 0.376-4.029 1.131-5.935 0.754-1.905 1.803-3.583 3.149-5.034 1.345-1.45 2.941-2.608 4.79-3.472 1.847-0.865 3.865-1.297 6.053-1.297 2.247 0 4.287 0.454 6.12 1.362 1.834 0.909 3.407 2.11 4.723 3.605 1.314 1.495 2.328 3.195 3.038 5.1s1.064 3.839 1.064 5.803c0 2.052-0.376 4.029-1.131 5.934-0.753 1.906-1.796 3.583-3.126 5.034-1.331 1.45-2.921 2.615-4.768 3.495-1.84 0.89-3.85 1.33-6.04 1.33zm-7.58-15.83c0 1.202 0.169 2.368 0.51 3.495 0.34 1.128 0.828 2.132 1.464 3.011 0.635 0.879 1.433 1.583 2.395 2.11 0.96 0.527 2.062 0.792 3.304 0.792 1.271 0 2.379-0.278 3.327-0.835 0.945-0.556 1.736-1.282 2.372-2.176 0.635-0.893 1.108-1.905 1.419-3.033 0.31-1.128 0.466-2.279 0.466-3.451 0-1.201-0.171-2.367-0.511-3.495-0.34-1.127-0.836-2.124-1.485-2.989-0.651-0.864-1.449-1.553-2.395-2.066-0.947-0.512-2.026-0.77-3.238-0.77-1.271 0-2.38 0.271-3.326 0.813-0.947 0.543-1.738 1.253-2.372 2.132-0.636 0.879-1.117 1.884-1.442 3.011-0.33 1.14-0.49 2.29-0.49 3.46z"/>	<path d="m529.69 271.91c-2.247 0-4.287-0.454-6.12-1.362s-3.407-2.102-4.722-3.583c-1.316-1.479-2.336-3.172-3.06-5.077-0.725-1.905-1.087-3.868-1.087-5.891 0-2.051 0.376-4.029 1.131-5.935 0.754-1.905 1.803-3.583 3.149-5.034 1.345-1.45 2.942-2.608 4.79-3.472 1.847-0.865 3.865-1.297 6.053-1.297 2.247 0 4.287 0.454 6.12 1.362 1.833 0.909 3.407 2.11 4.723 3.605 1.314 1.495 2.328 3.195 3.038 5.1s1.064 3.839 1.064 5.803c0 2.052-0.376 4.029-1.131 5.934-0.753 1.906-1.796 3.583-3.126 5.034-1.331 1.45-2.92 2.615-4.768 3.495-1.84 0.89-3.86 1.33-6.04 1.33zm-7.59-15.83c0 1.202 0.169 2.368 0.51 3.495 0.339 1.128 0.828 2.132 1.464 3.011 0.635 0.879 1.433 1.583 2.395 2.11 0.96 0.527 2.062 0.792 3.304 0.792 1.271 0 2.379-0.278 3.327-0.835 0.945-0.556 1.736-1.282 2.372-2.176 0.635-0.893 1.108-1.905 1.419-3.033 0.31-1.128 0.466-2.279 0.466-3.451 0-1.201-0.171-2.367-0.51-3.495-0.34-1.127-0.836-2.124-1.485-2.989-0.651-0.864-1.449-1.553-2.395-2.066-0.947-0.512-2.026-0.77-3.238-0.77-1.271 0-2.38 0.271-3.326 0.813-0.947 0.543-1.738 1.253-2.372 2.132-0.636 0.879-1.117 1.884-1.441 3.011-0.31 1.14-0.48 2.29-0.48 3.46z"/>	<path d="m593.81 268.61c-1.123 1.115-2.313 1.935-3.57 2.462-1.257 0.528-2.624 0.792-4.102 0.792-1.981 0-3.852-0.439-5.609-1.319-1.76-0.879-3.298-2.051-4.613-3.516-1.316-1.465-2.358-3.172-3.127-5.122-0.769-1.949-1.153-3.978-1.153-6.088 0-2.139 0.383-4.162 1.153-6.066 0.769-1.904 1.833-3.561 3.193-4.968 1.36-1.406 2.956-2.52 4.79-3.341 1.833-0.82 3.813-1.231 5.942-1.231 2.779 0 5.218 0.609 7.318 1.824 2.099 1.217 3.665 2.88 4.701 4.99l-5.455 4.045c-0.651-1.406-1.589-2.498-2.816-3.275-1.227-0.776-2.549-1.165-3.969-1.165-1.124 0-2.136 0.242-3.038 0.725s-1.686 1.158-2.35 2.023c-0.665 0.865-1.175 1.868-1.53 3.011-0.355 1.144-0.532 2.374-0.532 3.693 0 1.349 0.192 2.594 0.576 3.737s0.916 2.132 1.597 2.967c0.68 0.835 1.492 1.488 2.438 1.957 0.947 0.47 1.981 0.704 3.104 0.704 1.301 0 2.543-0.315 3.726-0.945 1.182-0.63 2.291-1.59 3.326-2.879v-1.055h-6.074v-5.231h12.106v16.31h-6.032v-3.01z"/>	<path d="m651.2 265.32v6.33h-22.129v-31.212h21.73v6.33h-14.46v6.066h12.417v5.847h-12.42v6.639h14.86v-0.01z"/>	<path d="m698.74 249.58c-0.119-0.117-0.444-0.337-0.976-0.66-0.532-0.322-1.197-0.66-1.996-1.01-0.799-0.352-1.67-0.66-2.617-0.923-0.946-0.264-1.893-0.395-2.838-0.395-1.242 0-2.195 0.22-2.861 0.66-0.665 0.439-0.998 1.084-0.998 1.935 0 0.527 0.148 0.967 0.443 1.319 0.296 0.351 0.717 0.667 1.264 0.945 0.547 0.279 1.226 0.535 2.04 0.77 0.812 0.235 1.752 0.498 2.816 0.791 1.508 0.411 2.867 0.857 4.08 1.341 1.212 0.484 2.247 1.085 3.104 1.802 0.858 0.718 1.515 1.59 1.974 2.616 0.458 1.026 0.688 2.258 0.688 3.693 0 1.758-0.333 3.246-0.997 4.462-0.665 1.217-1.546 2.198-2.639 2.946-1.094 0.747-2.358 1.29-3.792 1.627-1.41 0.32-2.88 0.49-4.39 0.49-1.153 0-2.328-0.088-3.525-0.264s-2.372-0.432-3.526-0.769c-1.153-0.337-2.276-0.739-3.369-1.209-1.094-0.468-2.099-1.01-3.015-1.626l3.192-6.286c0.148 0.147 0.547 0.425 1.197 0.835s1.448 0.821 2.395 1.231c0.946 0.411 2.011 0.777 3.193 1.099 1.182 0.323 2.379 0.484 3.592 0.484 2.572 0 3.859-0.777 3.859-2.33 0-0.586-0.193-1.07-0.577-1.45-0.384-0.381-0.916-0.725-1.596-1.033-0.681-0.308-1.479-0.593-2.395-0.857-0.917-0.264-1.922-0.557-3.015-0.879-1.449-0.439-2.705-0.916-3.769-1.428-1.065-0.512-1.952-1.106-2.661-1.78-0.71-0.674-1.235-1.45-1.574-2.33-0.34-0.879-0.51-1.905-0.51-3.077 0-1.641 0.31-3.092 0.931-4.352s1.463-2.323 2.528-3.188c1.064-0.864 2.299-1.517 3.703-1.957s2.89-0.66 4.456-0.66c1.123 0 2.218 0.103 3.282 0.308s2.076 0.469 3.038 0.791c0.96 0.323 1.869 0.689 2.727 1.099 0.857 0.411 1.625 0.821 2.306 1.231l-3.13 5.99z"/></g><path d="m308.94 190.15h-41.106v-190.15h41.009v81.494l74.91-81.494h53.039l-78.779 81.494 51.239 66.511c4.615 6.258 14.057 6.206 18.602-0.103l104.4-147.9h49.708l-124.96 176.54-19.1 27.195h-39.9l-61.328-82.291c-9.809-14.252-27.829 0.704-27.829 16.944l0.1 51.76z" fill="#FF2D21"/></svg><svg xmlns:xlink="http://www.w3.org/1999/xlink" id="pinterest-hover" xml:space="preserve" height="15" viewBox="5.003 1.999 14.002 15" width="14" version="1.1" y="468" x="0px" enable-background="new 5.003 1.999 14.002 15"><path d="m19.001 9.5c0 1.361-0.313 2.616-0.939 3.764-0.626 1.149-1.475 2.059-2.548 2.729s-2.244 1.006-3.514 1.006c-0.674 0-1.337-0.104-1.987-0.313 0.359-0.605 0.596-1.139 0.711-1.601 0.055-0.221 0.219-0.908 0.492-2.061 0.122 0.254 0.344 0.474 0.666 0.659 0.322 0.186 0.668 0.279 1.039 0.278 0.735 0 1.392-0.223 1.969-0.669s1.024-1.059 1.34-1.841c0.316-0.782 0.474-1.66 0.474-2.637 0-0.742-0.181-1.439-0.543-2.09s-0.886-1.182-1.572-1.592-1.461-0.615-2.324-0.615c-0.638 0-1.234 0.094-1.787 0.283-0.552 0.191-1.021 0.441-1.407 0.754s-0.717 0.672-0.993 1.079c-0.277 0.407-0.481 0.829-0.611 1.265-0.131 0.436-0.196 0.872-0.196 1.308 0 0.677 0.122 1.273 0.365 1.787s0.599 0.875 1.066 1.084c0.182 0.078 0.298 0.013 0.346-0.196 0.012-0.045 0.036-0.146 0.073-0.302s0.061-0.254 0.073-0.293c0.037-0.15 0.003-0.29-0.1-0.42-0.31-0.397-0.465-0.889-0.465-1.474 0-0.983 0.318-1.828 0.953-2.534s1.466-1.06 2.493-1.059c0.917 0 1.633 0.267 2.147 0.801s0.77 1.227 0.77 2.08c0 1.107-0.208 2.048-0.624 2.823s-0.949 1.162-1.6 1.162c-0.371 0-0.668-0.142-0.893-0.425s-0.295-0.624-0.209-1.021c0.049-0.228 0.129-0.532 0.242-0.913 0.112-0.381 0.204-0.716 0.274-1.006s0.105-0.535 0.105-0.738c0-0.325-0.082-0.596-0.246-0.811s-0.398-0.323-0.702-0.323c-0.377 0-0.696 0.186-0.957 0.557s-0.394 0.833-0.394 1.386c0 0.475 0.076 0.873 0.228 1.191l-0.902 4.082c-0.104 0.456-0.144 1.033-0.119 1.729-1.252-0.592-2.264-1.507-3.035-2.744s-1.157-2.614-1.157-4.131c0-1.361 0.313-2.616 0.939-3.764s1.475-2.059 2.548-2.729 2.244-1.006 3.514-1.006 2.441 0.336 3.514 1.006 1.922 1.58 2.548 2.729c0.626 1.15 0.939 2.404 0.939 3.764l-0.004 0.002z" fill="#BD081C"/></svg><svg xmlns:xlink="http://www.w3.org/1999/xlink" id="pinterest" xml:space="preserve" height="15" viewBox="5.002 1.999 14 15" width="14" version="1.1" y="483" x="0px" enable-background="new 5.002 1.999 14 15"><path d="m19.001 9.5c0 1.361-0.313 2.616-0.939 3.764-0.626 1.149-1.475 2.059-2.548 2.729s-2.244 1.006-3.514 1.006c-0.674 0-1.337-0.104-1.987-0.313 0.359-0.605 0.596-1.139 0.711-1.601 0.055-0.221 0.219-0.908 0.492-2.061 0.122 0.254 0.344 0.474 0.666 0.659 0.322 0.186 0.668 0.279 1.039 0.278 0.735 0 1.392-0.223 1.969-0.669s1.024-1.059 1.34-1.841 0.474-1.66 0.474-2.637c0-0.742-0.181-1.439-0.543-2.09s-0.886-1.182-1.572-1.592-1.461-0.615-2.324-0.615c-0.638 0-1.234 0.094-1.787 0.283-0.552 0.191-1.021 0.441-1.407 0.754s-0.717 0.672-0.993 1.079c-0.277 0.407-0.481 0.829-0.611 1.265-0.131 0.436-0.196 0.872-0.196 1.308 0 0.677 0.122 1.273 0.365 1.787s0.599 0.875 1.066 1.084c0.182 0.078 0.298 0.013 0.346-0.196 0.012-0.045 0.036-0.146 0.073-0.302s0.061-0.254 0.073-0.293c0.037-0.15 0.003-0.29-0.1-0.42-0.31-0.397-0.465-0.889-0.465-1.474 0-0.983 0.318-1.828 0.953-2.534s1.466-1.06 2.493-1.059c0.917 0 1.633 0.267 2.147 0.801s0.77 1.227 0.77 2.08c0 1.107-0.208 2.048-0.624 2.823s-0.949 1.162-1.6 1.162c-0.371 0-0.668-0.142-0.893-0.425s-0.295-0.624-0.209-1.021c0.049-0.228 0.129-0.532 0.242-0.913 0.112-0.381 0.204-0.716 0.274-1.006s0.105-0.535 0.105-0.738c0-0.325-0.082-0.596-0.246-0.811s-0.398-0.323-0.702-0.323c-0.377 0-0.696 0.186-0.957 0.557s-0.394 0.833-0.394 1.386c0 0.475 0.076 0.873 0.228 1.191l-0.902 4.082c-0.104 0.456-0.144 1.033-0.119 1.729-1.252-0.592-2.264-1.507-3.035-2.744s-1.157-2.614-1.157-4.131c0-1.361 0.313-2.616 0.939-3.764s1.475-2.059 2.548-2.729 2.244-1.006 3.514-1.006c1.27 0 2.441 0.336 3.514 1.006s1.922 1.58 2.548 2.729c0.626 1.15 0.939 2.404 0.939 3.764l-0.004 0.002z"/></svg><svg xmlns:xlink="http://www.w3.org/1999/xlink" id="twitter-hover" xml:space="preserve" height="13" viewBox="5.5 4.001 14.999 13" width="15" version="1.1" y="498" x="0px" enable-background="new 5.5 4.001 14.999 13"><path d="m20.499 5.544c-0.425 0.663-0.939 1.229-1.542 1.696 0.006 0.095 0.01 0.237 0.01 0.426 0 0.88-0.121 1.759-0.362 2.636s-0.608 1.718-1.099 2.524c-0.492 0.806-1.077 1.518-1.756 2.138s-1.497 1.114-2.455 1.483-1.983 0.553-3.074 0.554c-1.719 0-3.293-0.491-4.721-1.473 0.222 0.027 0.47 0.041 0.743 0.041 1.428 0 2.7-0.467 3.817-1.401-0.666-0.013-1.263-0.232-1.79-0.655s-0.888-0.963-1.085-1.62c0.21 0.034 0.403 0.051 0.58 0.051 0.273 0 0.543-0.037 0.809-0.112-0.711-0.156-1.299-0.533-1.765-1.132-0.466-0.6-0.699-1.296-0.699-2.088v-0.041c0.431 0.257 0.894 0.396 1.389 0.417-0.419-0.299-0.752-0.688-0.999-1.169-0.248-0.48-0.372-1.002-0.371-1.564 0-0.596 0.14-1.148 0.419-1.656 0.768 1.01 1.702 1.817 2.803 2.423s2.28 0.943 3.536 1.011c-0.051-0.257-0.076-0.508-0.076-0.751 0-0.907 0.3-1.681 0.9-2.321s1.325-0.96 2.175-0.96c0.888 0 1.637 0.345 2.246 1.036 0.692-0.142 1.342-0.406 1.951-0.792-0.235 0.779-0.685 1.381-1.352 1.808 0.589-0.068 1.179-0.237 1.768-0.509z" fill="#55ACEE"/></svg><svg xmlns:xlink="http://www.w3.org/1999/xlink" id="twitter" xml:space="preserve" height="13" viewBox="5.5 4.001 15 13" width="15" version="1.1" y="511" x="0px" enable-background="new 5.5 4.001 15 13"><path d="m20.499 5.544c-0.425 0.663-0.939 1.229-1.542 1.696 0.006 0.095 0.01 0.237 0.01 0.426 0 0.88-0.121 1.759-0.362 2.636s-0.608 1.718-1.099 2.524c-0.492 0.806-1.077 1.518-1.756 2.138s-1.497 1.114-2.455 1.483-1.983 0.553-3.074 0.554c-1.719 0-3.293-0.491-4.721-1.473 0.222 0.027 0.47 0.041 0.743 0.041 1.428 0 2.7-0.467 3.817-1.401-0.666-0.013-1.263-0.232-1.79-0.655s-0.888-0.963-1.085-1.62c0.21 0.034 0.403 0.051 0.58 0.051 0.273 0 0.543-0.037 0.809-0.112-0.711-0.156-1.299-0.533-1.765-1.132-0.466-0.6-0.699-1.296-0.699-2.088v-0.041c0.431 0.257 0.894 0.396 1.389 0.417-0.419-0.299-0.752-0.688-0.999-1.169-0.248-0.48-0.372-1.002-0.371-1.564 0-0.596 0.14-1.148 0.419-1.656 0.768 1.01 1.702 1.817 2.803 2.423s2.28 0.943 3.536 1.011c-0.051-0.257-0.076-0.508-0.076-0.751 0-0.907 0.3-1.681 0.9-2.321s1.325-0.96 2.175-0.96c0.888 0 1.637 0.345 2.246 1.036 0.692-0.142 1.342-0.406 1.951-0.792-0.235 0.779-0.685 1.381-1.352 1.808 0.589-0.068 1.179-0.237 1.768-0.509z"/></svg></svg>
